Coordinates
version=1
nRows=18
nColumns=28
inDegrees=yes

Units are S.I. units (second, meters, Newtons, ...)
Angles are in degrees.

endheader
time	pelvis_tilt	pelvis_list	pelvis_rotation	pelvis_tx	pelvis_ty	pelvis_tz	hip_flexion_r	hip_adduction_r	hip_rotation_r	knee_angle_r	ankle_angle_r	subtalar_angle_r	mtp_angle_r	hip_flexion_l	hip_adduction_l	hip_rotation_l	knee_angle_l	socket_flexion	socket_adduction	socket_rotation	socket_tx	socket_ty	socket_tz	foot_flex	lumbar_extension	lumbar_bending	lumbar_rotation
      0.63333333	      1.99258978	      5.13469954	     13.72288580	     -0.04332366	      1.00494422	      0.27839196	     21.25094517	     -8.06224437	    -14.30858195	     -7.81385743	     18.32863234	    -11.56931258	     -6.69399410	    -23.86207183	      3.85597110	      9.53202465	     -8.47271415	     -0.48952243	     -1.79161527	     12.14982886	      0.00000000	     -0.00277964	      0.00000000	      9.56878038	    -15.11325986	     -3.60315403	    -12.56450595
      0.63750000	      2.07326151	      5.04180017	     13.77689285	     -0.03682257	      1.00404687	      0.27843030	     21.39581393	     -7.93637692	    -14.00592494	     -8.67876470	     18.09270115	    -11.60618923	     -6.66810162	    -24.15271543	      3.66625216	      9.60208040	     -8.68869783	     -0.40404546	     -1.81847997	     12.11508167	      0.00000000	     -0.00275392	      0.00000000	      9.54959768	    -15.11319490	     -3.35141101	    -12.64407368
      0.64166667	      2.19250250	      4.92625510	     13.69860035	     -0.03035842	      1.00313506	      0.27862984	     21.65220042	     -7.77375779	    -13.77658413	     -9.79342789	     17.74902377	    -11.68621034	     -6.58634083	    -24.45506809	      3.51577183	      9.53708722	     -8.94119854	     -0.32523722	     -1.83311020	     11.91441260	      0.00000000	     -0.00276615	      0.00000000	      9.47207725	    -15.15759904	     -3.08799169	    -12.73943825
      0.64583333	      2.27823307	      4.84053806	     13.61400747	     -0.02379146	      1.00221967	      0.27884146	     21.92386018	     -7.64127190	    -13.50545161	    -10.89890054	     17.39401457	    -11.72129316	     -6.37220372	    -24.73089895	      3.41051430	      9.47347916	     -9.19284322	     -0.23290232	     -1.89136485	     11.76942675	      0.00000000	     -0.00264724	      0.00000000	      9.38646397	    -15.14330795	     -2.87503221	    -12.77300812
      0.65000000	      2.35361496	      4.73881807	     13.55303578	     -0.01727955	      1.00134997	      0.27907105	     22.17200588	     -7.49191182	    -13.21497531	    -11.95632869	     17.00508107	    -11.71275779	     -6.15790619	    -24.96031682	      3.27634436	      9.45206720	     -9.48935774	     -0.13651571	     -1.89570388	     11.63054928	      0.00000000	     -0.00266307	      0.00000000	      9.27031382	    -15.13075532	     -2.63821577	    -12.76968669
      0.65416667	      2.17635554	      4.74363036	     13.49270007	     -0.01052921	      1.00007825	      0.27929881	     22.71777614	     -7.54986024	    -13.01692375	    -13.04433214	     14.86657996	    -12.05616313	      2.02325243	    -24.68076328	      3.33927645	      8.95559145	    -10.62722741	     -0.54536147	     -2.11024613	     11.97191979	      0.00000000	     -0.00234406	      0.00000000	      9.13607671	    -14.83726605	     -2.62784441	    -12.67366138
      0.65833333	      2.29683239	      4.59198797	     13.44365645	     -0.00397457	      0.99933420	      0.27952233	     22.90099449	     -7.34664989	    -12.79431670	    -14.08729921	     14.46603276	    -12.05792210	      2.01909231	    -24.92459995	      3.15333619	      8.97299838	    -10.93474417	     -0.40763672	     -2.11697975	     11.76768616	      0.00000000	     -0.00241116	      0.00000000	      8.97080214	    -14.86847455	     -2.33040026	    -12.68087537
      0.66250000	      2.40452136	      4.43811650	     13.38853582	      0.00259906	      0.99862446	      0.27982068	     23.08674643	     -7.13221250	    -12.55191974	    -15.11723608	     14.07413218	    -12.05301795	      2.04126105	    -25.13286561	      2.97094389	      8.98752599	    -11.27017685	     -0.26807152	     -2.11435177	     11.55438249	      0.00000000	     -0.00248148	      0.00000000	      8.77622153	    -14.89256110	     -2.05136063	    -12.67428167
      0.66666667	      2.50930432	      4.29317336	     13.36500824	      0.00909765	      0.99798634	      0.28008002	     23.23273136	     -6.92847352	    -12.26266893	    -16.08047785	     13.72250013	    -12.02933803	      2.06414389	    -25.31449480	      2.78532313	      9.07931668	    -11.63343631	     -0.07891148	     -2.12421877	     11.42949214	      0.00000000	     -0.00258836	      0.00000000	      8.57257258	    -14.89443486	     -1.75806981	    -12.65452697
      0.67083333	      2.61748009	      4.10706050	     13.20135336	      0.01580158	      0.99729106	      0.28050185	     23.46787485	     -6.67132353	    -12.08718307	    -17.19335404	     13.27527255	    -12.07383192	      2.14558374	    -25.47343480	      2.64797189	      9.00008763	    -12.06623966	      0.03933025	     -2.12051583	     11.04062157	      0.00000000	     -0.00265493	      0.00000000	      8.30518177	    -14.88090632	     -1.47016940	    -12.60234615
      0.67500000	      2.69059321	      3.92899513	     13.08064651	      0.02243173	      0.99666339	      0.28088018	     23.67740813	     -6.42275688	    -11.83371445	    -18.20791027	     12.85709895	    -12.12821468	      2.30074212	    -25.55941922	      2.50803705	      8.99236941	    -12.55034160	      0.18906833	     -2.11949001	     10.76025060	      0.00000000	     -0.00274142	      0.00000000	      8.03472628	    -14.83704773	     -1.18593482	    -12.48961587
      0.67916667	      2.77989568	      3.73924069	     12.98047236	      0.02903653	      0.99612703	      0.28140981	     23.84616588	     -6.14771106	    -11.59162533	    -19.18091353	     12.48558528	    -12.15915790	      2.39740644	    -25.64192043	      2.32571839	      9.03049767	    -13.03057439	      0.35568519	     -2.08216210	     10.50374574	      0.00000000	     -0.00287436	      0.00000000	      7.72335149	    -14.82723523	     -0.90440389	    -12.42530303
      0.68333333	      2.86956037	      3.55712317	     12.92230011	      0.03562943	      0.99566240	      0.28176460	     23.95658067	     -5.89653430	    -11.34349833	    -20.08407366	     12.16604533	    -12.17318688	      2.46335091	    -25.70392721	      2.15022157	      9.09133459	    -13.51682236	      0.58694056	     -2.06368537	     10.27421612	      0.00000000	     -0.00304278	      0.00000000	      7.41444144	    -14.82440170	     -0.60580470	    -12.36637216
      0.68750000	      2.54465446	      3.28739637	     12.71102923	      0.04239504	      0.99463871	      0.28253729	     24.50495786	     -5.51876383	    -10.80042293	    -20.81058804	     10.36441347	    -13.47740704	      7.06337399	    -24.64754135	      2.07759123	      8.06841687	    -16.01059295	     -0.46170452	     -2.39256052	     10.71078967	      0.00000000	     -0.00240558	      0.00000000	      7.05953376	    -14.28310127	     -0.42314812	    -11.98091434
      0.69166667	      2.68058685	      3.07057578	     12.58556446	      0.04907237	      0.99434253	      0.28301491	     24.55745131	     -5.21379466	    -10.66305820	    -21.69912870	     10.09816078	    -13.46753988	      7.05866888	    -24.72200682	      1.90086835	      8.12944531	    -16.52055294	     -0.20783414	     -2.32394132	     10.32548129	      0.00000000	     -0.00252167	      0.00000000	      6.67059175	    -14.30050004	     -0.09599115	    -11.94913795
      0.69583333	      2.80543851	      2.85283741	     12.47365350	      0.05574161	      0.99410749	      0.28356761	     24.59131916	     -4.89636632	    -10.51067809	    -22.53984647	      9.85456128	    -13.45741858	      7.05317409	    -24.75505998	      1.71240577	      8.22957855	    -17.06460765	      0.05758025	     -2.22559464	      9.97582140	      0.00000000	     -0.00267970	      0.00000000	      6.27700174	    -14.31851882	      0.22399531	    -11.89912978
      0.70000000	      2.88814653	      2.54792301	     12.40155010	      0.06238339	      0.99392676	      0.28404424	     24.58999695	     -4.49769523	    -10.39256803	    -23.20713159	      9.53754214	    -13.60389257	      7.07067257	    -24.59258429	      1.47299534	      8.45781604	    -17.96209252	      0.11796842	     -2.10441338	      9.36273413	      0.00000000	     -0.00277886	      0.00000000	      5.88856017	    -14.24243897	      0.61730648	    -11.65345648
      0.70416667	      3.00360747	      2.33782090	     12.25775474	      0.06907018	      0.99379280	      0.28461146	     24.59654569	     -4.19174484	    -10.29022624	    -23.98657612	      9.32469454	    -13.63743550	      7.06647725	    -24.56290091	      1.32517958	      8.51399397	    -18.57103379	      0.40474448	     -2.00742618	      8.98762843	      0.00000000	     -0.00289822	      0.00000000	      5.44617397	    -14.24267765	      0.89811289	    -11.63549273
